<?xml version="1.0" encoding="UTF-8"?>
<svg width="250px" height="192.47px" viewBox="0 0 250 192.47" version="1.1" xmlns="http://www.w3.org/2000/svg" xmlns:xlink="http://www.w3.org/1999/xlink">
    <title>编组</title>
    <defs>
        <linearGradient x1="91.4082981%" y1="24.5942336%" x2="10.8787942%" y2="79.4912%" id="linearGradient-1">
            <stop stop-color="#72FFFF" offset="0%"></stop>
            <stop stop-color="#0585F5" offset="49.7008337%"></stop>
            <stop stop-color="#2060FF" offset="100%"></stop>
        </linearGradient>
        <linearGradient x1="52.4854005%" y1="-96.572537%" x2="53.6498601%" y2="127.375271%" id="linearGradient-2">
            <stop stop-color="#72FFFF" offset="0%"></stop>
            <stop stop-color="#FFFFFF" offset="100%"></stop>
        </linearGradient>
        <linearGradient x1="61.5342559%" y1="6.92652993%" x2="39.1028123%" y2="100%" id="linearGradient-3">
            <stop stop-color="#72FFFF" offset="0%"></stop>
            <stop stop-color="#FFFFFF" offset="84.0116914%"></stop>
        </linearGradient>
        <linearGradient x1="74.0058365%" y1="6.92652993%" x2="27.3200708%" y2="100%" id="linearGradient-4">
            <stop stop-color="#72FFFF" offset="0%"></stop>
            <stop stop-color="#FFFFFF" offset="100%"></stop>
        </linearGradient>
    </defs>
    <g id="页面-1" stroke="none" stroke-width="1" fill="none" fill-rule="evenodd">
        <g id="dark" transform="translate(-27, -19)">
            <g id="编组" transform="translate(27, 19)">
                <path d="M225.565299,0.00300528486 C237.193311,-0.180422079 247.644534,8.04978906 249.711265,20.0184246 C251.912439,32.7606213 241.214645,46.3932051 228.304248,46.707652 C224.404294,46.8026412 189.574825,46.6727134 185.67596,46.7829882 C178.100851,46.9969868 172.655613,52.4337521 172.644182,59.6774952 C172.632752,66.968187 177.974572,72.4158706 185.554036,72.6942871 C189.26947,72.8313117 223.918228,72.6959248 227.637472,72.7663478 C238.920939,72.9787087 248.585639,82.0763784 249.830468,93.6110117 C251.062232,105.027727 243.201907,116.562907 232.140517,118.666862 C227.30599,119.586183 214.869229,119.220966 209.896992,119.367271 C205.517505,119.496107 201.668172,120.786103 198.915616,124.372763 C195.765172,128.479134 195.232296,133.045165 197.336039,137.729114 C199.616138,142.80503 203.888397,145.097872 209.285737,145.31187 C212.910271,145.455446 223.897545,145.316784 227.52589,145.383931 C238.974281,145.5952 248.782134,154.850093 249.839721,166.396191 C250.901118,177.985416 243.07454,189.004705 231.994643,191.40673 C230.240345,191.786687 228.408754,191.966293 226.613088,191.967385 C181.061738,191.994135 135.510389,192.027435 89.9590388,191.961926 C70.1190792,191.933538 52.3953819,185.425142 36.8897323,173.207024 C16.4189218,157.075788 4.07569096,135.879555 0.940487465,109.996098 C-3.89349556,70.0831767 9.87908327,37.8829397 42.905404,14.616052 C54.2705167,6.60857406 67.1858133,2.09549662 81.066709,0.699592537 C85.0227262,0.301620667 89.0179335,0.143305382 92.9957229,0.133478916 C114.319461,0.0799792681 135.643744,0.108366836 156.967482,0.108912751 C179.833784,0.109458666 202.70444,0.364400866 225.565299,0.00300528486 Z" id="路径-2" fill="url(#linearGradient-1)"></path>
                <rect id="矩形" fill="url(#linearGradient-2)" x="40" y="60" width="19" height="36" rx="9"></rect>
                <rect id="矩形备份" fill="url(#linearGradient-3)" x="91" y="60" width="19" height="36" rx="9"></rect>
                <path d="M37.6143239,135.501164 C45.1825296,127.975768 52.7208608,120.42065 60.3244352,112.931125 C64.788097,108.534364 71.9871638,110.282478 73.6220199,116.157466 C74.5010855,119.317531 73.5990131,122.092923 71.2492294,124.415997 C67.0692037,128.549021 62.9166487,132.709717 58.7379964,136.844448 C58.3358926,137.242104 57.8321468,137.537955 57.2006617,138.012477 C60.5023086,139.902025 62.0602464,142.443059 61.9053798,145.94202 C65.9367199,146.975788 68.2198868,149.449521 68.6055082,153.592794 C68.6422504,153.988741 69.1538941,154.520316 69.5645826,154.676098 C75.5137279,156.928798 77.0950159,163.433749 72.7299056,168.051544 C70.6139672,170.289895 68.3946698,172.432932 66.1808666,174.576993 C64.8856183,175.831454 57.9905552,182.604477 57.5807889,183.077739 C47.7534532,194.432451 32.7921681,195.336059 22.4264047,186.632386 C18.0317633,182.942454 14.5206515,178.622218 13.3205209,172.774219 C12.4345875,168.457399 12.5307353,164.174059 14.4588422,160.263435 C16.7505938,155.614211 17.2529661,150.734045 17.5705972,145.725769 C17.9661767,139.483188 18.4671755,133.246415 18.9880905,127.012375 C19.2504367,123.871441 21.739978,121.179749 24.7579889,120.57575 C27.8213267,119.962868 30.975318,121.409324 32.5645039,124.30736 C34.4222168,127.695291 35.229515,131.411528 35.7339475,135.202581 C35.7995341,135.694526 35.8682111,136.186472 35.9856488,137.047034 C36.7160287,136.354895 37.1751344,135.937766 37.6143239,135.501164 Z" id="Fill-1" fill="url(#linearGradient-4)"></path>
            </g>
        </g>
    </g>
</svg>